<?xml version="1.0" standalone="no"?>
<!DOCTYPE svg PUBLIC "-//W3C//DTD SVG 1.1//EN" "http://www.w3.org/Graphics/SVG/1.1/DTD/svg11.dtd" >
<svg xmlns="http://www.w3.org/2000/svg" xmlns:xlink="http://www.w3.org/1999/xlink" version="1.1">
<metadata></metadata>
<defs>
<font id="sf_monomedium" horiz-adv-x="1266" >
<font-face units-per-em="2048" ascent="1638" descent="-410" />
<missing-glyph horiz-adv-x="500" />
<glyph horiz-adv-x="0" />
<glyph unicode="&#xd;" horiz-adv-x="0" />
<glyph unicode=" " />
<glyph unicode="!" d="M483 129q0 62 43.5 106t106.5 44t106.5 -44t43.5 -106q0 -63 -43.5 -107t-106.5 -44t-106.5 44t-43.5 107zM517 1443h233l-19 -994h-196z" />
<glyph unicode="&#x22;" d="M321 787v656h208v-656h-208zM735 787v656h210v-656h-210z" />
<glyph unicode="#" d="M58 403l34 171h207l61 313h-207l33 169h207l77 388h166l-77 -388h274l77 388h166l-77 -388h208l-34 -169h-208l-62 -313h208l-33 -171h-208l-80 -403h-166l80 403h-275l-78 -403h-167l81 403h-207zM456 564h286l65 330h-287z" />
<glyph unicode="$" d="M123 384h182q11 -102 86.5 -168t194.5 -80v519l-33 8q-203 49 -299 146.5t-96 255.5q0 173 116 283t312 125v111h123v-111q185 -17 299.5 -124.5t123.5 -274.5h-180q-12 95 -76.5 156.5t-166.5 76.5v-493l41 -11q216 -52 311.5 -147.5t95.5 -258.5q0 -182 -120.5 -296 t-327.5 -131v-111h-123v111q-204 14 -328.5 124.5t-134.5 289.5zM345 1074q0 -87 56 -140.5t185 -89.5v464q-112 -14 -176.5 -76t-64.5 -158zM709 136q118 14 189.5 81.5t71.5 166.5q0 92 -61.5 149t-199.5 93v-490z" />
<glyph unicode="%" d="M0 0v156l1266 1287v-156zM6 1063v90q0 143 75.5 227.5t203.5 84.5q127 0 202.5 -84.5t75.5 -227.5v-90q0 -146 -74.5 -231.5t-203.5 -85.5t-204 85.5t-75 231.5zM148 1076q0 -94 35 -143t102 -49t102 49t35 143v60q0 94 -35 143t-102 49t-102 -49t-35 -143v-60zM703 294 v90q0 143 75.5 227.5t202.5 84.5q128 0 203.5 -84.5t75.5 -227.5v-90q0 -146 -75 -231.5t-204 -85.5t-203.5 85.5t-74.5 231.5zM844 307q0 -94 35 -143t102 -49t102 49t35 143v60q0 191 -137 191q-67 0 -102 -48.5t-35 -142.5v-60z" />
<glyph unicode="&#x26;" d="M59 374q0 236 256 401l49 33q-162 193 -162 350q0 139 93 227t241 88q145 0 236.5 -88t91.5 -227q0 -108 -61 -195t-203 -180l291 -362q48 111 54 296v14h165v-24q-8 -260 -111 -430l228 -277h-224l-110 139q-168 -165 -401 -165q-191 0 -312 112t-121 288zM244 386 q0 -110 72 -177.5t189 -67.5q185 0 291 123l-339 420l-37 -24q-176 -110 -176 -274zM372 1154q0 -57 31 -118t102 -143q105 69 147 127.5t42 133.5q0 69 -46 115t-115 46t-115 -46t-46 -115z" />
<glyph unicode="'" d="M529 781v662h208v-662h-208z" />
<glyph unicode="(" d="M395 722q0 261 78.5 484.5t229.5 394.5h203q-157 -226 -227 -432.5t-70 -446.5q0 -241 69.5 -447t227.5 -432h-203q-151 171 -229.5 394.5t-78.5 484.5z" />
<glyph unicode=")" d="M360 -157q158 226 227.5 432t69.5 447q0 240 -70 446.5t-227 432.5h203q151 -171 229.5 -394.5t78.5 -484.5t-78.5 -484.5t-229.5 -394.5h-203z" />
<glyph unicode="*" d="M86 422l407 218l-407 219l82 148l397 -247l-14 466h164l-14 -465l397 245l82 -147l-407 -219l407 -218l-82 -148l-397 246l14 -465h-164l14 465l-397 -246z" />
<glyph unicode="+" d="M97 549v182h443v444h186v-444h443v-182h-443v-442h-186v442h-443z" />
<glyph unicode="," d="M363 -337l119 662h251l-186 -662h-184z" />
<glyph unicode="-" d="M104 549v182h1058v-182h-1058z" />
<glyph unicode="." d="M441 186q0 81 56.5 138.5t135.5 57.5t135.5 -57.5t56.5 -138.5q0 -80 -56.5 -138t-135.5 -58t-135.5 58t-56.5 138z" />
<glyph unicode="/" d="M185 -160l695 1763h201l-699 -1763h-197z" />
<glyph unicode="0" d="M131 721q0 364 130.5 559t372.5 195t372.5 -195t130.5 -559q0 -363 -130.5 -558t-372.5 -195t-372.5 195t-130.5 558zM336 721q0 -72 4 -124l558 440q-68 260 -264 260q-146 0 -222 -146.5t-76 -429.5zM370 404q69 -259 264 -259q145 0 221 147t76 429q0 73 -4 126z" />
<glyph unicode="1" d="M165 959v210l418 274h204v-1266h395v-177h-1014v177h414v1043h-16z" />
<glyph unicode="2" d="M156 1023v6q0 195 131.5 319.5t337.5 124.5t334 -113.5t128 -295.5q0 -114 -65.5 -226t-241.5 -296l-322 -343v-17h652v-182h-944v143l483 522q140 152 186.5 229t46.5 159q0 111 -72 177.5t-191 66.5q-120 0 -193 -73.5t-73 -194.5v-6h-197z" />
<glyph unicode="3" d="M126 392h195q10 -110 94 -175.5t214 -65.5q141 0 223.5 67.5t82.5 183.5q0 118 -84.5 187.5t-226.5 69.5h-167v166h161q117 0 190.5 67t73.5 174q0 105 -71.5 168.5t-189.5 63.5t-190.5 -64t-82.5 -175h-194q11 192 138 303t336 111q202 0 329.5 -105.5t127.5 -271.5 q0 -129 -66 -217.5t-183 -115.5v-16q145 -19 226.5 -113t81.5 -240q0 -187 -142.5 -305.5t-366.5 -118.5q-221 0 -360 115.5t-149 306.5z" />
<glyph unicode="4" d="M132 296v166l475 981h211l-466 -958v-14h438v399h187v-399h213v-175h-212v-296h-193v296h-653z" />
<glyph unicode="5" d="M135 391h200q13 -106 95 -172t201 -66q133 0 214 85.5t81 224.5q0 140 -81.5 226t-213.5 86q-92 0 -163.5 -39.5t-112.5 -112.5h-198l71 820h816v-181h-651l-38 -447h17q104 133 302 133q200 0 326.5 -134t126.5 -346q0 -223 -139.5 -360t-365.5 -137q-208 0 -343 116 t-144 304z" />
<glyph unicode="6" d="M132 473q0 129 46.5 253.5t151.5 274.5q17 25 160 224t158 218h237l-384 -524q-41 -57 -53 -82l16 -6q35 42 102 69.5t135 27.5q193 0 319.5 -130.5t126.5 -328.5q0 -216 -143.5 -357.5t-363.5 -141.5q-223 0 -365.5 141t-142.5 362zM335 459q0 -132 87 -220.5t217 -88.5 t217 88.5t87 220.5q0 133 -87 221.5t-217 88.5t-217 -88.5t-87 -221.5z" />
<glyph unicode="7" d="M150 1264v179h982v-183l-637 -1260h-220l645 1250v14h-770z" />
<glyph unicode="8" d="M111 387q0 134 81.5 234.5t217.5 132.5v16q-111 30 -176 116.5t-65 202.5q0 169 131 277.5t337 108.5t337 -108.5t131 -277.5q0 -117 -65 -202.5t-177 -116.5v-16q134 -28 217 -130t83 -237q0 -186 -146.5 -302.5t-379.5 -116.5q-234 0 -380 116.5t-146 302.5zM323 404 q0 -118 87 -191.5t227 -73.5t227 73.5t87 191.5t-87 191.5t-227 73.5t-227 -73.5t-87 -191.5zM373 1071q0 -106 72.5 -170.5t191.5 -64.5t191.5 64.5t72.5 170.5q0 105 -73 169.5t-191 64.5q-119 0 -191.5 -64.5t-72.5 -169.5z" />
<glyph unicode="9" d="M125 975q0 215 143.5 356.5t363.5 141.5q223 0 365 -141t142 -362q0 -125 -47.5 -249.5t-153.5 -278.5q-17 -26 -160.5 -225t-157.5 -217h-237l384 525q39 54 54 81l-17 7q-34 -43 -99.5 -70t-134.5 -27q-193 0 -319 129.5t-126 329.5zM328 984q0 -132 87 -221t217 -89 t217 89t87 221t-87 221t-217 89t-217 -89t-87 -221z" />
<glyph unicode=":" d="M441 186q0 81 56.5 138.5t135.5 57.5t135.5 -57.5t56.5 -138.5q0 -80 -56.5 -138t-135.5 -58t-135.5 58t-56.5 138zM441 951q0 81 56.5 138.5t135.5 57.5t135.5 -57.5t56.5 -138.5q0 -80 -56.5 -137.5t-135.5 -57.5t-135.5 57.5t-56.5 137.5z" />
<glyph unicode=";" d="M378 -337l120 662h250l-185 -662h-185zM441 951q0 81 56.5 138.5t135.5 57.5t135.5 -57.5t56.5 -138.5q0 -80 -56.5 -137.5t-135.5 -57.5t-135.5 57.5t-56.5 137.5z" />
<glyph unicode="&#x3c;" d="M193 554v173l881 504v-223l-673 -359v-17l673 -358v-224z" />
<glyph unicode="=" d="M104 307v195h1058v-195h-1058zM104 778v195h1058v-195h-1058z" />
<glyph unicode="&#x3e;" d="M193 50v224l672 358v17l-672 359v223l881 -504v-173z" />
<glyph unicode="?" d="M198 1061q8 185 126.5 292t314.5 107q189 0 309.5 -104t120.5 -268q0 -217 -206 -342q-93 -56 -126.5 -105t-33.5 -127v-65h-201l-1 84q-2 105 42.5 178t146.5 135q89 55 124 106.5t35 126.5q0 88 -61 142t-159 54q-101 0 -162.5 -57t-69.5 -157h-199zM460 129 q0 62 43.5 106t106.5 44q62 0 106 -44t44 -106q0 -63 -44 -107t-106 -44q-63 0 -106.5 44t-43.5 107z" />
<glyph unicode="@" d="M108 550v171q0 374 136.5 564.5t403.5 190.5q255 0 389.5 -161t134.5 -467v-292q0 -122 -60 -190t-168 -68h-263q-57 0 -90.5 34.5t-33.5 92.5v416q0 58 28 92t75 34t75 -34t28 -92v-421h156q67 0 94.5 29t27.5 100v273q0 524 -394 524q-210 0 -306.5 -151t-96.5 -480 v-143q0 -334 105.5 -488.5t334.5 -154.5q67 0 130 10t95 25v-126q-36 -17 -103.5 -27.5t-136.5 -10.5q-279 0 -420 188.5t-141 561.5z" />
<glyph unicode="A" d="M62 0l455 1443h232l455 -1443h-221l-115 398h-480l-116 -398h-210zM437 567h382l-187 645h-7z" />
<glyph unicode="B" d="M175 0v1443h486q202 0 316.5 -95t114.5 -262q0 -119 -70.5 -207.5t-181.5 -107.5v-15q145 -13 234.5 -110t89.5 -241q0 -190 -132 -297.5t-364 -107.5h-493zM380 172h236q332 0 332 249q0 121 -85 182.5t-252 61.5h-231v-493zM380 828h207q143 0 219.5 57t76.5 164 t-71 165.5t-202 58.5h-230v-445z" />
<glyph unicode="C" d="M121 588v267q0 293 143.5 455.5t401.5 162.5q234 0 369 -134.5t138 -371.5h-210q-4 142 -86.5 228.5t-212.5 86.5q-162 0 -245.5 -108.5t-83.5 -318.5v-267q0 -210 83.5 -318.5t246.5 -108.5q135 0 215 79t83 215h210q0 -219 -139.5 -352t-367.5 -133 q-258 0 -401.5 162.5t-143.5 455.5z" />
<glyph unicode="D" d="M148 0v1443h422q305 0 460 -180.5t155 -536.5q0 -726 -615 -726h-422zM357 185h190q218 0 321.5 131t103.5 408q0 271 -104.5 402.5t-320.5 131.5h-190v-1073z" />
<glyph unicode="E" d="M221 0v1443h868v-185h-659v-437h622v-174h-622v-462h659v-185h-868z" />
<glyph unicode="F" d="M242 0v1443h870v-185h-661v-466h603v-179h-603v-613h-209z" />
<glyph unicode="G" d="M116 588v267q0 293 142.5 455.5t400.5 162.5q229 0 364.5 -131t140.5 -358h-210q-6 134 -88.5 216t-210.5 82q-162 0 -245.5 -108.5t-83.5 -318.5v-267q0 -211 84 -319t247 -108q137 0 216.5 77.5t79.5 211.5v125h-313v168h524v-305q0 -209 -140 -338.5t-365 -129.5 q-258 0 -400.5 162.5t-142.5 455.5z" />
<glyph unicode="H" d="M143 0v1443h206v-615h568v615h206v-1443h-206v643h-568v-643h-206z" />
<glyph unicode="I" d="M235 0v181h294v1081h-294v181h796v-181h-294v-1081h294v-181h-796z" />
<glyph unicode="J" d="M149 379h203q4 -97 69 -156.5t167 -59.5q116 0 178.5 68t62.5 195v836h-503v181h711v-1021q0 -212 -118.5 -332t-327.5 -120q-197 0 -319 112.5t-123 296.5z" />
<glyph unicode="K" d="M199 0v1443h202v-701h13l561 701h233l-522 -638l568 -805h-252l-458 651l-143 -174v-477h-202z" />
<glyph unicode="L" d="M254 0v1443h206v-1255h669v-188h-875z" />
<glyph unicode="M" d="M107 0v1443h226l293 -877h14l292 877h227v-1443h-181v533l17 582h-15l-270 -776h-154l-270 776h-15l17 -582v-533h-181z" />
<glyph unicode="N" d="M145 0v1443h194l582 -1079h15v1079h185v-1443h-192l-584 1082h-15v-1082h-185z" />
<glyph unicode="O" d="M97 607v229q0 299 143 468t393 169t393 -169t143 -468v-229q0 -299 -143 -468t-393 -169t-393 169t-143 468zM307 608q0 -216 85.5 -332t240.5 -116t240.5 116t85.5 332v227q0 216 -85.5 332t-240.5 116t-240.5 -116t-85.5 -332v-227z" />
<glyph unicode="P" d="M183 0v1443h494q215 0 344.5 -128.5t129.5 -342.5t-131 -342t-349 -128h-279v-502h-209zM392 679h234q152 0 232.5 75t80.5 218t-80.5 218t-232.5 75h-234v-586z" />
<glyph unicode="Q" d="M97 607v229q0 299 143 468t393 169t393 -169t143 -468v-229q0 -330 -170 -498l171 -272h-211l-109 173q-98 -40 -217 -40q-250 0 -393 169t-143 468zM304 606q0 -219 86 -336.5t243 -117.5q63 0 115 20l-181 289h211l110 -175q74 119 74 320v223q0 219 -86 336.5 t-243 117.5t-243 -117.5t-86 -336.5v-223z" />
<glyph unicode="R" d="M170 0v1443h496q221 0 349 -118t128 -323q0 -141 -72 -249.5t-193 -150.5l292 -602h-234l-264 563h-295v-563h-207zM377 731h260q142 0 219 69.5t77 197.5q0 127 -76 197.5t-213 70.5h-267v-535z" />
<glyph unicode="S" d="M126 390h201q12 -112 96.5 -175.5t222.5 -63.5q137 0 218 64.5t81 173.5q0 88 -62 143t-202 89l-132 31q-199 49 -294 148.5t-95 257.5q0 189 132 302t352 113q211 0 343.5 -111t140.5 -294h-200q-12 106 -86.5 165t-195.5 59q-130 0 -203.5 -58t-73.5 -161 q0 -89 60 -143t194 -86l132 -33q210 -50 304.5 -147t94.5 -261q0 -199 -137.5 -316t-372.5 -117q-230 0 -368.5 112.5t-149.5 307.5z" />
<glyph unicode="T" d="M100 1258v185h1066v-185h-429v-1258h-208v1258h-429z" />
<glyph unicode="U" d="M116 503v940h208v-927q0 -169 81 -262t228 -93t228 93t81 262v927h208v-940q0 -251 -137 -392t-380 -141t-380 141t-137 392z" />
<glyph unicode="V" d="M62 1443h220l352 -1212h7l354 1212h209l-455 -1443h-232z" />
<glyph unicode="W" d="M0 1443h194l78 -556l78 -593h13l181 819h178l181 -819h13l78 593l78 556h194l-241 -1443h-191l-195 883h-12l-195 -883h-191z" />
<glyph unicode="X" d="M59 0l449 725l-446 718h233l341 -562h9l344 562h218l-457 -722l451 -721h-227l-345 553h-9l-348 -553h-213z" />
<glyph unicode="Y" d="M53 1443h230l343 -648h14l343 648h230l-476 -864v-579h-208v579z" />
<glyph unicode="Z" d="M136 0v147l727 1097v14h-704v185h965v-147l-726 -1097v-14h741v-185h-1003z" />
<glyph unicode="[" d="M360 -160v1763h557v-160h-360v-1443h363v-160h-560z" />
<glyph unicode="\" d="M185 1603h201l695 -1763h-197z" />
<glyph unicode="]" d="M360 0h363v1443h-359v160h556v-1763h-560v160z" />
<glyph unicode="^" d="M194 681l335 762h208l335 -762h-203l-227 554h-18l-227 -554h-203z" />
<glyph unicode="_" d="M114 -150h1038v-173h-1038v173z" />
<glyph unicode="`" d="M396 1639h235l239 -343h-205z" />
<glyph unicode="a" d="M166 310q0 145 101.5 228.5t292.5 94.5l286 15v96q0 94 -56.5 144.5t-161.5 50.5q-87 0 -146.5 -36t-78.5 -100h-196q15 135 132.5 218.5t292.5 83.5q197 0 305 -94.5t108 -266.5v-745h-191v159h-19q-39 -84 -123.5 -130t-199.5 -46q-156 0 -251 90t-95 238zM366 319 q0 -79 56 -124.5t152 -45.5q117 0 194.5 69t77.5 173v115l-259 -13q-109 -6 -165 -50t-56 -124z" />
<glyph unicode="b" d="M176 0v1515h206v-598h20q33 91 115 141t200 50q189 0 300 -125.5t111 -338.5v-198q0 -213 -111 -338.5t-300 -125.5q-118 0 -200 49t-120 141h-19v-172h-202zM377 465q0 -140 74.5 -222.5t199.5 -82.5q126 0 200 82.5t74 222.5v163q0 140 -74 223t-200 83 q-125 0 -199.5 -82.5t-74.5 -223.5v-163z" />
<glyph unicode="c" d="M175 479v134q0 238 125 368.5t353 130.5q191 0 308.5 -98t137.5 -275h-198q-14 94 -81.5 147.5t-168.5 53.5q-133 0 -204 -90t-71 -258v-92q0 -168 71 -258t204 -90q101 0 168 52t82 144h198q-20 -174 -138 -271.5t-308 -97.5q-227 0 -352.5 131t-125.5 369z" />
<glyph unicode="d" d="M138 446v198q0 213 111 338.5t300 125.5q118 0 200.5 -50t115.5 -141h19v598h206v-1515h-201v172h-19q-39 -92 -121 -141t-200 -49q-189 0 -300 125.5t-111 338.5zM341 465q0 -140 74 -222.5t200 -82.5t200 82.5t74 222.5v163q0 141 -74 223.5t-200 82.5t-200 -83 t-74 -223v-163z" />
<glyph unicode="e" d="M177 469v166q0 215 129 345.5t341 130.5q214 0 336 -133t122 -365v-118h-731v-49q0 -138 77 -220t206 -82q97 0 165 38.5t88 105.5h192q-22 -137 -145 -223t-299 -86q-229 0 -355 128.5t-126 361.5zM374 636h534q0 146 -69.5 228.5t-193.5 82.5q-127 0 -199 -82.5 t-72 -228.5z" />
<glyph unicode="f" d="M173 919v165h292v102q0 165 97 241t305 76q210 0 264 -9v-155q-80 8 -260 8q-209 0 -209 -154v-109h469v-165h-466v-919h-200v919h-292z" />
<glyph unicode="g" d="M126 458v186q0 214 113.5 339t306.5 125q118 0 203.5 -51t118.5 -140h19v173h198v-1089q0 -192 -128.5 -301t-354.5 -109q-197 0 -319 79.5t-138 217.5h198q16 -64 87 -102t175 -38q135 0 207 65.5t72 188.5v182h-19q-32 -88 -119 -139t-207 -51q-189 0 -301 125.5 t-112 338.5zM330 477q0 -140 75 -223t202 -83q126 0 201.5 83.5t75.5 222.5v151q0 140 -75.5 223t-201.5 83q-127 0 -202 -83t-75 -223v-151z" />
<glyph unicode="h" d="M173 0v1515h194v-616h15q42 101 131.5 155.5t213.5 54.5q178 0 272 -104t94 -300v-705h-200v656q0 139 -58.5 206.5t-179.5 67.5q-127 0 -204 -80.5t-77 -212.5v-637h-201z" />
<glyph unicode="i" d="M196 0v162h367v766h-359v162h555v-928h352v-162h-915zM496 1493q0 65 44 107t111 42q68 0 111.5 -42t43.5 -107q0 -64 -43.5 -106t-111.5 -42q-67 0 -111 42t-44 106z" />
<glyph unicode="j" d="M183 -155q64 -6 262 -6q137 0 189.5 41.5t52.5 149.5v898h-483v162h679v-1074q0 -190 -99.5 -271.5t-331.5 -81.5q-186 0 -269 7v175zM616 1493q0 65 43.5 107t111.5 42q67 0 110.5 -42t43.5 -107q0 -64 -43.5 -106t-110.5 -42q-68 0 -111.5 42t-43.5 106z" />
<glyph unicode="k" d="M249 0v1515h200v-900h15l446 475h238l-417 -438l446 -652h-236l-355 521l-137 -134v-387h-200z" />
<glyph unicode="l" d="M196 0v162h365v1190h-357v163h557v-1353h350v-162h-915z" />
<glyph unicode="m" d="M100 0v1090h177v-158h22q19 85 74 132t133 47q76 0 127.5 -46t68.5 -129h22q19 81 78 128t140 47q110 0 167 -75.5t57 -220.5v-815h-176v753q0 87 -33 133.5t-95 46.5q-65 0 -102.5 -52t-37.5 -142v-739h-175v754q0 88 -33 133.5t-95 45.5q-66 0 -104.5 -52t-38.5 -142 v-739h-176z" />
<glyph unicode="n" d="M175 0v1090h194v-190h14q43 101 132 156t211 55q178 0 271.5 -103.5t93.5 -300.5v-707h-201v657q0 140 -57.5 207.5t-178.5 67.5q-125 0 -202 -80.5t-77 -212.5v-639h-200z" />
<glyph unicode="o" d="M152 462v165q0 222 130 352.5t351 130.5t351 -130.5t130 -352.5v-165q0 -221 -130.5 -352t-350.5 -131t-350.5 131t-130.5 352zM350 476q0 -151 76 -239t207 -88t207 88t76 239v137q0 151 -76 239t-207 88t-207 -88t-76 -239v-137z" />
<glyph unicode="p" d="M177 -366v1456h201v-173h19q38 93 120 141.5t201 48.5q188 0 299.5 -125t111.5 -338v-199q0 -213 -111.5 -338t-299.5 -125q-118 0 -200.5 49.5t-115.5 141.5h-19v-539h-206zM378 461q0 -141 74 -223.5t199 -82.5q126 0 200.5 83t74.5 223v163q0 140 -74.5 222.5 t-200.5 82.5q-125 0 -199 -82.5t-74 -222.5v-163z" />
<glyph unicode="q" d="M137 445v199q0 213 111.5 338t299.5 125q119 0 201 -48.5t120 -141.5h19v173h201v-1456h-206v539h-19q-33 -92 -115.5 -141.5t-200.5 -49.5q-188 0 -299.5 125t-111.5 338zM340 461q0 -140 74.5 -223t200.5 -83q125 0 199 82.5t74 223.5v163q0 140 -74 222.5t-199 82.5 q-126 0 -200.5 -82.5t-74.5 -222.5v-163z" />
<glyph unicode="r" d="M165 936v154h431v-278h28q64 306 379 306q102 0 157 -23v-220q-84 31 -180 31q-184 0 -283.5 -109.5t-99.5 -310.5v-332h331v-154h-742v154h216v782h-237z" />
<glyph unicode="s" d="M194 287h202q16 -70 80.5 -108t163.5 -38q103 0 164 42.5t61 113.5q0 60 -41 94.5t-140 56.5l-163 37q-298 67 -298 304q0 146 113 234.5t300 88.5q179 0 289 -80.5t123 -222.5h-192q-14 67 -73.5 105.5t-149.5 38.5q-96 0 -153.5 -41t-57.5 -109q0 -58 42 -93t138 -56 l158 -35q162 -36 237 -108t75 -192q0 -155 -118.5 -247t-318.5 -92q-193 0 -310.5 81.5t-130.5 225.5z" />
<glyph unicode="t" d="M147 919v165h288v304h198v-304h431v-165h-428v-589q0 -81 55 -124t159 -43q168 0 208 5v-164q-44 -8 -222 -8q-210 0 -305.5 79.5t-95.5 254.5v589h-288z" />
<glyph unicode="u" d="M175 383v707h201v-658q0 -140 57.5 -207t178.5 -67q125 0 202 80.5t77 212.5v639h200v-1090h-194v189h-14q-43 -101 -132 -155.5t-211 -54.5q-178 0 -271.5 103.5t-93.5 300.5z" />
<glyph unicode="v" d="M128 1090h215l285 -885h14l283 885h213l-393 -1090h-223z" />
<glyph unicode="w" d="M39 1090h194l129 -845h23l159 843h178l159 -843h23l129 845h194l-230 -1090h-185l-173 817h-11l-174 -817h-185z" />
<glyph unicode="x" d="M144 1090h234l253 -401h14l251 401h224l-365 -538l368 -552h-229l-257 405h-14l-258 -405h-219l366 544z" />
<glyph unicode="y" d="M122 1090h220l287 -892h14l285 892h213l-400 -1123q-71 -203 -161.5 -280t-257.5 -77q-43 0 -82 3v169q16 -3 60 -3q79 0 125.5 36.5t76.5 122.5l17 54z" />
<glyph unicode="z" d="M201 0v132l618 777v15h-614v166h854v-142l-602 -767v-15h608v-166h-864z" />
<glyph unicode="{" d="M235 618v207q167 -14 240.5 41t73.5 176v224q0 191 73 264t266 73h143v-160h-105q-110 0 -143 -39t-33 -167v-270q0 -106 -77 -169.5t-222 -67.5v-17q145 -4 222 -67.5t77 -169.5v-270q0 -128 33 -167t143 -39h105v-160h-143q-193 0 -266 73t-73 264v223 q0 121 -73.5 176.5t-240.5 41.5z" />
<glyph unicode="|" d="M538 -483v2086h190v-2086h-190z" />
<glyph unicode="}" d="M235 0h105q110 0 143 39t33 167v270q0 106 77 169.5t222 67.5v17q-145 4 -222 67.5t-77 169.5v270q0 128 -33 167t-143 39h-105v160h143q193 0 266 -73t73 -264v-224q0 -121 73.5 -176t240.5 -41v-207q-167 14 -240.5 -41.5t-73.5 -176.5v-223q0 -191 -73 -264t-266 -73 h-143v160z" />
<glyph unicode="~" d="M132 577q0 156 79.5 250t210.5 94q71 0 130.5 -29t126.5 -98q49 -52 83.5 -72.5t69.5 -20.5q114 0 125 179h176q1 -9 1 -30q0 -156 -78.5 -250t-208.5 -94q-73 0 -132 29t-126 97q-49 52 -82 72.5t-66 20.5q-120 0 -130 -178h-178q-1 8 -1 30z" />
<glyph unicode="&#xa0;" />
<glyph unicode="&#xa1;" d="M483 964q0 63 43.5 107t106.5 44t106.5 -44t43.5 -107q0 -62 -43.5 -106t-106.5 -44t-106.5 44t-43.5 106zM517 -350l18 994h196l19 -994h-233z" />
<glyph unicode="&#xa2;" d="M190 629v178q0 197 99.5 316t264.5 148v176h191v-175q146 -23 234 -115.5t94 -225.5h-196q-9 71 -70 119t-153 48q-121 0 -190.5 -79t-69.5 -218v-166q0 -141 68 -219.5t192 -78.5q96 0 158 44t72 107h197q-3 -127 -97 -215t-239 -113v-177h-191v176q-170 25 -267 144.5 t-97 325.5z" />
<glyph unicode="&#xa3;" d="M125 649v168h221q-60 161 -60 271q0 184 133 287t371 103q91 0 153 -8t136 -31v-188q-130 40 -268 40q-147 0 -227 -62t-80 -175q0 -56 11 -102.5t42 -134.5h427v-168h-379q20 -63 20 -121q2 -98 -44 -183t-129 -136v-17h709v-192h-1035v182q127 25 208 120t83 220 q0 65 -20 127h-272z" />
<glyph unicode="&#xa4;" d="M141 267l162 165q-65 97 -65 222t65 220l-162 165l124 129l161 -168q97 66 216 66q122 0 217 -66l160 168l123 -129l-158 -164q64 -98 64 -221q0 -125 -65 -223l159 -164l-123 -129l-160 169q-95 -65 -217 -65q-120 0 -217 65l-160 -169zM397 654q0 -107 70 -178.5 t176 -71.5t175.5 71t69.5 179t-69.5 179t-175.5 71t-176 -71.5t-70 -178.5z" />
<glyph unicode="&#xa5;" d="M53 1443h230l343 -648h14l343 648h230l-411 -746h207v-147h-272v-155h272v-147h-272v-248h-208v248h-271v147h271v155h-271v147h206z" />
<glyph unicode="&#xa6;" d="M538 337h190v-820h-190v820zM538 782v821h190v-821h-190z" />
<glyph unicode="&#xa7;" d="M220 541q0 93 56 160t159 97v17q-209 89 -209 273q0 145 111 233t291 88q169 0 276.5 -81.5t122.5 -220.5h-195q-9 61 -65.5 98t-141.5 37q-90 0 -145.5 -40.5t-55.5 -106.5q0 -55 42.5 -90.5t131.5 -57.5l152 -45q151 -43 224 -115t73 -179q0 -99 -65 -174t-174 -100 v-17q237 -67 237 -260q0 -143 -114 -233.5t-295 -90.5q-172 0 -285 86.5t-122 224.5h197q10 -64 69.5 -103.5t148.5 -39.5q91 0 147.5 40.5t56.5 106.5q0 54 -43 90t-134 58l-151 46q-152 43 -226 116.5t-74 182.5zM414 582q0 -59 41 -101.5t117 -59.5l92 -27q86 6 138 51 t52 116q0 117 -157 159l-93 29q-84 -5 -137 -51.5t-53 -115.5z" />
<glyph unicode="&#xa8;" d="M297 1444q0 52 37.5 90.5t88.5 38.5q50 0 88 -38.5t38 -90.5t-38 -90.5t-88 -38.5q-51 0 -88.5 38.5t-37.5 90.5zM717 1444q0 52 38 90.5t88 38.5q51 0 88.5 -38.5t37.5 -90.5t-37.5 -90.5t-88.5 -38.5q-50 0 -88 38.5t-38 90.5z" />
<glyph unicode="&#xa9;" d="M91 721q0 152 72 278.5t196.5 198.5t273.5 72t273.5 -72t196.5 -198.5t72 -278.5t-72 -278.5t-196.5 -198.5t-273.5 -72t-273.5 72t-196.5 198.5t-72 278.5zM197 721q0 -189 126 -320t310 -131t310 131t126 320t-126 320t-310 131t-310 -131t-126 -320zM381 722 q0 137 70 213t194 76q96 0 160 -54.5t77 -146.5h-127q-24 87 -111 87q-64 0 -99.5 -46.5t-35.5 -128.5t35.5 -128.5t99.5 -46.5q43 0 72.5 22t38.5 60h127q-12 -89 -76.5 -142.5t-160.5 -53.5q-124 0 -194 76t-70 213z" />
<glyph unicode="&#xaa;" d="M255 791q0 124 87.5 195t251.5 82l227 14v71q0 72 -45.5 111t-127.5 39q-68 0 -113.5 -28t-55.5 -76h-190q10 121 109.5 193t256.5 72q169 0 262.5 -81t93.5 -228v-623h-184v117h-16q-37 -67 -105.5 -103t-157.5 -36q-132 0 -212.5 77t-80.5 204zM447 799q0 -62 44.5 -99 t118.5 -37q93 0 154.5 57t61.5 143v90l-205 -15q-174 -12 -174 -139z" />
<glyph unicode="&#xab;" d="M120 637v4l347 420h200l-346 -420v-4l346 -420h-200zM595 637v4l347 420h201l-347 -420v-4l347 -420h-201z" />
<glyph unicode="&#xac;" d="M104 549v182h1058v-570h-183v388h-875z" />
<glyph unicode="&#xad;" d="M104 549v182h1058v-182h-1058z" />
<glyph unicode="&#xae;" d="M91 991q0 152 71.5 278t196 198.5t274.5 72.5t274.5 -72.5t196 -198.5t71.5 -278t-71.5 -278t-196 -198.5t-274.5 -72.5t-274.5 72.5t-196 198.5t-71.5 278zM197 991q0 -190 126.5 -320.5t309.5 -130.5t309.5 130.5t126.5 320.5t-126.5 320.5t-309.5 130.5t-309.5 -130.5 t-126.5 -320.5zM418 725v538h257q87 0 137.5 -45.5t50.5 -124.5q0 -57 -29.5 -99.5t-82.5 -62.5l140 -206h-140l-127 190h-93v-190h-113zM531 1009h119q43 0 66 20t23 57q0 35 -23 53.5t-66 18.5h-119v-149z" />
<glyph unicode="&#xaf;" d="M294 1366v152h678v-152h-678z" />
<glyph unicode="&#xb0;" d="M306 1156q0 141 93.5 234.5t234.5 93.5t234.5 -93.5t93.5 -234.5t-93.5 -234.5t-234.5 -93.5t-234.5 93.5t-93.5 234.5zM445 1156q0 -83 53.5 -137.5t135.5 -54.5t135.5 54.5t53.5 137.5t-53.5 137.5t-135.5 54.5t-135.5 -54.5t-53.5 -137.5z" />
<glyph unicode="&#xb1;" d="M133 99v164h1000v-164h-1000zM133 659v165h411v272h178v-272h411v-165h-411v-272h-178v272h-411z" />
<glyph unicode="&#xb2;" d="M271 1330v4q0 145 99.5 236t258.5 91q155 0 251.5 -82t96.5 -215q0 -83 -50 -165.5t-179 -208.5l-206 -204v-13h450v-160h-711v132l336 341q103 106 138 159.5t35 106.5q0 70 -46 112t-122 42q-77 0 -125 -47.5t-48 -124.5v-4h-178z" />
<glyph unicode="&#xb3;" d="M259 904h176q5 -69 58.5 -109.5t138.5 -40.5q90 0 142.5 42t52.5 113q0 72 -54 115.5t-144 43.5h-121v144h119q77 0 124.5 41t47.5 109q0 66 -46.5 105.5t-124.5 39.5q-77 0 -125 -41.5t-53 -112.5h-172q6 143 101.5 225.5t254.5 82.5q153 0 248.5 -75.5t95.5 -196.5 q0 -91 -48.5 -153.5t-131.5 -80.5v-12q103 -13 161.5 -78t58.5 -167q0 -136 -106 -221t-275 -85q-166 0 -268.5 85t-109.5 227z" />
<glyph unicode="&#xb4;" d="M396 1296l239 343h235l-269 -343h-205z" />
<glyph unicode="&#xb6;" d="M129 981q0 201 137.5 331.5t341.5 130.5h193v-1603h-180v692h-14q-203 0 -340.5 127.5t-137.5 321.5zM962 -160v1603h180v-1603h-180z" />
<glyph unicode="&#xb7;" d="M476 738q0 68 45 112.5t113 44.5q69 0 113 -44.5t44 -112.5q0 -69 -44 -114t-113 -45q-68 0 -113 45.5t-45 113.5z" />
<glyph unicode="&#xb8;" d="M440 -353q44 -14 117 -14q113 0 113 68q0 33 -32.5 48t-106.5 15h-58v94l59 142h143l-51 -126q95 -2 145 -45t50 -123q0 -89 -66 -141.5t-179 -52.5q-68 0 -134 18v117z" />
<glyph unicode="&#xb9;" d="M296 613v159h280v677h-13l-267 -178v181l280 188h187v-868h267v-159h-734z" />
<glyph unicode="&#xba;" d="M208 987q0 221 114 349t311 128t311 -128t114 -349t-114 -349t-311 -128t-311 128t-114 349zM405 987q0 -151 59 -232t169 -81t169 81t59 232t-59 232t-169 81t-169 -81t-59 -232z" />
<glyph unicode="&#xbb;" d="M120 217l347 420v4l-347 420h200l347 -420v-4l-347 -420h-200zM595 217l347 420v4l-347 420h200l348 -420v-4l-348 -420h-200z" />
<glyph unicode="&#xbc;" d="M0 0v156l1266 1287v-156zM0 1157v158l175 128h173v-690h-173v533h-3zM667 122v149q7 14 131 206.5t136 214.5h243v-438h89v-116h-89v-138h-165v122h-345zM819 252h198v316h-3q-9 -19 -99 -157t-96 -155v-4z" />
<glyph unicode="&#xbd;" d="M0 0v156l1266 1287v-156zM0 1157v158l175 128h173v-690h-173v533h-3zM737 474v3q0 104 73.5 167.5t193.5 63.5q115 0 185.5 -56.5t70.5 -147.5q0 -55 -27.5 -102t-96.5 -112l-154 -144v-4h284v-142h-518v124l265 247q73 70 73 120q0 36 -25 58t-65 22t-66.5 -27 t-26.5 -67v-3h-166z" />
<glyph unicode="&#xbe;" d="M-39 961h169q2 -37 30 -59t73 -22q44 0 71.5 22.5t27.5 58.5q0 39 -26.5 61t-73.5 22h-83v125h82q42 0 66.5 21.5t24.5 58.5q0 35 -24.5 55.5t-67.5 20.5t-69.5 -23.5t-28.5 -63.5h-158q1 104 72.5 164t193.5 60q112 0 179.5 -51.5t67.5 -136.5q0 -62 -37.5 -104.5 t-102.5 -52.5v-9q75 -5 119.5 -48.5t44.5 -113.5q0 -93 -76.5 -151.5t-198.5 -58.5q-124 0 -197.5 59.5t-77.5 165.5zM0 0v156l1266 1287v-156zM658 122v149q12 28 136 218.5t131 202.5h243v-438h89v-116h-89v-138h-165v122h-345zM810 252h198v316h-2q-7 -14 -99 -156 t-97 -156v-4z" />
<glyph unicode="&#xbf;" d="M198 3q0 217 206 342q93 56 126.5 105t33.5 127v65h201l1 -84q2 -105 -42.5 -178t-146.5 -135q-89 -55 -124 -106.5t-35 -126.5q0 -88 61 -142t159 -54q101 0 162.5 57t69.5 157h199q-8 -185 -126.5 -292t-314.5 -107q-189 0 -309.5 104t-120.5 268zM507 962q0 63 44 107 t106 44q63 0 106.5 -44t43.5 -107q0 -62 -43.5 -106t-106.5 -44q-62 0 -106 44t-44 106z" />
<glyph unicode="&#xc0;" d="M62 0l455 1443h232l455 -1443h-221l-115 398h-480l-116 -398h-210zM228 1917h233l294 -307h-208zM437 567h382l-187 645h-7z" />
<glyph unicode="&#xc1;" d="M62 0l455 1443h232l455 -1443h-221l-115 398h-480l-116 -398h-210zM437 567h382l-187 645h-7zM510 1610l294 307h232l-319 -307h-207z" />
<glyph unicode="&#xc2;" d="M62 0l455 1443h232l455 -1443h-221l-115 398h-480l-116 -398h-210zM254 1610l285 315h188l285 -315h-200l-172 197h-14l-172 -197h-200zM437 567h382l-187 645h-7z" />
<glyph unicode="&#xc3;" d="M62 0l455 1443h232l455 -1443h-221l-115 398h-480l-116 -398h-210zM262 1622q0 129 60 204t160 75q45 0 83.5 -15.5t64 -38t47.5 -45t46 -38t48 -15.5q90 0 96 140h137q0 -127 -60.5 -202t-159.5 -75q-43 0 -79.5 15.5t-61.5 38t-47 45t-48 38t-53 15.5q-91 0 -95 -142 h-138zM437 567h382l-187 645h-7z" />
<glyph unicode="&#xc4;" d="M62 0l455 1443h232l455 -1443h-221l-115 398h-480l-116 -398h-210zM297 1772q0 52 37.5 90.5t88.5 38.5q50 0 88 -38.5t38 -90.5t-38 -90.5t-88 -38.5q-51 0 -88.5 38.5t-37.5 90.5zM437 567h382l-187 645h-7zM717 1772q0 52 38 90.5t88 38.5q51 0 88.5 -38.5t37.5 -90.5 t-37.5 -90.5t-88.5 -38.5q-50 0 -88 38.5t-38 90.5z" />
<glyph unicode="&#xc5;" d="M62 0l455 1443h232l455 -1443h-221l-115 398h-480l-116 -398h-210zM437 567h382l-187 645h-7zM437 1751q0 81 56.5 136.5t139.5 55.5t139.5 -55.5t56.5 -136.5q0 -82 -56.5 -138t-139.5 -56t-139.5 56t-56.5 138zM533 1750q0 -43 28.5 -71.5t71.5 -28.5t71.5 28.5 t28.5 71.5t-28.5 71t-71.5 28t-71.5 -28t-28.5 -71z" />
<glyph unicode="&#xc6;" d="M3 0l407 1443h827v-184h-415v-444h379v-176h-379v-454h415v-185h-605v413h-310l-108 -413h-211zM369 589h263v659h-90z" />
<glyph unicode="&#xc7;" d="M121 588v267q0 293 143.5 455.5t401.5 162.5q234 0 369 -134.5t138 -371.5h-210q-4 142 -86.5 228.5t-212.5 86.5q-162 0 -245.5 -108.5t-83.5 -318.5v-267q0 -210 83.5 -318.5t246.5 -108.5q135 0 215 79t83 215h210q0 -204 -121.5 -334t-324.5 -148l-40 -99 q95 -2 145 -45t50 -123q0 -89 -66.5 -141.5t-179.5 -52.5q-67 0 -133 18v117q44 -14 117 -14q112 0 112 68q0 33 -32.5 48t-105.5 15h-58v94l48 117q-221 26 -342 185t-121 428z" />
<glyph unicode="&#xc8;" d="M221 0v1443h868v-185h-659v-437h622v-174h-622v-462h659v-185h-868zM250 1917h233l294 -307h-207z" />
<glyph unicode="&#xc9;" d="M221 0v1443h868v-185h-659v-437h622v-174h-622v-462h659v-185h-868zM526 1610l293 307h233l-319 -307h-207z" />
<glyph unicode="&#xca;" d="M221 0v1443h868v-185h-659v-437h622v-174h-622v-462h659v-185h-868zM276 1610l285 315h188l285 -315h-200l-172 197h-14l-172 -197h-200z" />
<glyph unicode="&#xcb;" d="M221 0v1443h868v-185h-659v-437h622v-174h-622v-462h659v-185h-868zM319 1772q0 52 37.5 90.5t88.5 38.5q50 0 88 -38.5t38 -90.5t-38 -90.5t-88 -38.5q-51 0 -88.5 38.5t-37.5 90.5zM740 1772q0 52 37.5 90.5t87.5 38.5q51 0 88.5 -38.5t37.5 -90.5t-37.5 -90.5 t-88.5 -38.5q-50 0 -87.5 38.5t-37.5 90.5z" />
<glyph unicode="&#xcc;" d="M228 1917h233l294 -307h-208zM235 0v181h294v1081h-294v181h796v-181h-294v-1081h294v-181h-796z" />
<glyph unicode="&#xcd;" d="M235 0v181h294v1081h-294v181h796v-181h-294v-1081h294v-181h-796zM510 1610l294 307h232l-319 -307h-207z" />
<glyph unicode="&#xce;" d="M235 0v181h294v1081h-294v181h796v-181h-294v-1081h294v-181h-796zM254 1610l285 315h188l285 -315h-200l-172 197h-14l-172 -197h-200z" />
<glyph unicode="&#xcf;" d="M235 0v181h294v1081h-294v181h796v-181h-294v-1081h294v-181h-796zM297 1772q0 52 37.5 90.5t88.5 38.5q50 0 88 -38.5t38 -90.5t-38 -90.5t-88 -38.5q-51 0 -88.5 38.5t-37.5 90.5zM717 1772q0 52 38 90.5t88 38.5q51 0 88.5 -38.5t37.5 -90.5t-37.5 -90.5t-88.5 -38.5 q-50 0 -88 38.5t-38 90.5z" />
<glyph unicode="&#xd0;" d="M17 646v177h131v620h422q305 0 460 -180.5t155 -536.5q0 -726 -615 -726h-422v646h-131zM357 185h190q218 0 321.5 131t103.5 408q0 271 -104.5 402.5t-320.5 131.5h-190v-435h253v-177h-253v-461z" />
<glyph unicode="&#xd1;" d="M145 0v1443h194l582 -1079h15v1079h185v-1443h-192l-584 1082h-15v-1082h-185zM259 1622q0 129 60 204t160 75q45 0 83.5 -15.5t64 -38t47.5 -45t46 -38t49 -15.5q43 0 68 35.5t28 104.5h137q0 -127 -61 -202t-160 -75q-43 0 -79.5 15.5t-61.5 38t-47 45t-47.5 38 t-53.5 15.5q-91 0 -95 -142h-138z" />
<glyph unicode="&#xd2;" d="M97 607v229q0 299 143 468t393 169t393 -169t143 -468v-229q0 -299 -143 -468t-393 -169t-393 169t-143 468zM228 1917h233l294 -307h-208zM307 608q0 -216 85.5 -332t240.5 -116t240.5 116t85.5 332v227q0 216 -85.5 332t-240.5 116t-240.5 -116t-85.5 -332v-227z" />
<glyph unicode="&#xd3;" d="M97 607v229q0 299 143 468t393 169t393 -169t143 -468v-229q0 -299 -143 -468t-393 -169t-393 169t-143 468zM307 608q0 -216 85.5 -332t240.5 -116t240.5 116t85.5 332v227q0 216 -85.5 332t-240.5 116t-240.5 -116t-85.5 -332v-227zM510 1610l294 307h232l-319 -307 h-207z" />
<glyph unicode="&#xd4;" d="M97 607v229q0 299 143 468t393 169t393 -169t143 -468v-229q0 -299 -143 -468t-393 -169t-393 169t-143 468zM254 1610l285 315h188l285 -315h-200l-172 197h-14l-172 -197h-200zM307 608q0 -216 85.5 -332t240.5 -116t240.5 116t85.5 332v227q0 216 -85.5 332 t-240.5 116t-240.5 -116t-85.5 -332v-227z" />
<glyph unicode="&#xd5;" d="M97 607v229q0 299 143 468t393 169t393 -169t143 -468v-229q0 -299 -143 -468t-393 -169t-393 169t-143 468zM262 1622q0 129 60 204t160 75q45 0 83.5 -15.5t64 -38t47.5 -45t46 -38t48 -15.5q90 0 96 140h137q0 -127 -60.5 -202t-159.5 -75q-43 0 -79.5 15.5t-61.5 38 t-47 45t-48 38t-53 15.5q-91 0 -95 -142h-138zM307 608q0 -216 85.5 -332t240.5 -116t240.5 116t85.5 332v227q0 216 -85.5 332t-240.5 116t-240.5 -116t-85.5 -332v-227z" />
<glyph unicode="&#xd6;" d="M97 607v229q0 299 143 468t393 169t393 -169t143 -468v-229q0 -299 -143 -468t-393 -169t-393 169t-143 468zM297 1772q0 52 37.5 90.5t88.5 38.5q50 0 88 -38.5t38 -90.5t-38 -90.5t-88 -38.5q-51 0 -88.5 38.5t-37.5 90.5zM307 608q0 -216 85.5 -332t240.5 -116 t240.5 116t85.5 332v227q0 216 -85.5 332t-240.5 116t-240.5 -116t-85.5 -332v-227zM717 1772q0 52 38 90.5t88 38.5q51 0 88.5 -38.5t37.5 -90.5t-37.5 -90.5t-88.5 -38.5q-50 0 -88 38.5t-38 90.5z" />
<glyph unicode="&#xd7;" d="M185 318l320 321l-320 322l128 139l321 -321l320 321l127 -138l-320 -321l320 -321l-129 -138l-320 320l-319 -321z" />
<glyph unicode="&#xd8;" d="M84 0l122 184q-109 163 -109 423v229q0 299 143 468t393 169q209 0 347 -121l61 91h139l-121 -182q110 -162 110 -425v-229q0 -299 -143 -468t-393 -169q-211 0 -348 123l-62 -93h-139zM307 608q0 -130 32 -224l526 794q-84 105 -232 105q-155 0 -240.5 -116t-85.5 -332 v-227zM400 266q84 -106 233 -106q155 0 240.5 116t85.5 332v227q0 132 -32 226z" />
<glyph unicode="&#xd9;" d="M116 503v940h208v-927q0 -169 81 -262t228 -93t228 93t81 262v927h208v-940q0 -251 -137 -392t-380 -141t-380 141t-137 392zM226 1917h233l294 -307h-208z" />
<glyph unicode="&#xda;" d="M116 503v940h208v-927q0 -169 81 -262t228 -93t228 93t81 262v927h208v-940q0 -251 -137 -392t-380 -141t-380 141t-137 392zM508 1610l293 307h233l-319 -307h-207z" />
<glyph unicode="&#xdb;" d="M116 503v940h208v-927q0 -169 81 -262t228 -93t228 93t81 262v927h208v-940q0 -251 -137 -392t-380 -141t-380 141t-137 392zM252 1610l285 315h188l285 -315h-200l-172 197h-14l-172 -197h-200z" />
<glyph unicode="&#xdc;" d="M116 503v940h208v-927q0 -169 81 -262t228 -93t228 93t81 262v927h208v-940q0 -251 -137 -392t-380 -141t-380 141t-137 392zM295 1772q0 52 37.5 90.5t88.5 38.5q50 0 88 -38.5t38 -90.5t-38 -90.5t-88 -38.5q-51 0 -88.5 38.5t-37.5 90.5zM715 1772q0 52 38 90.5 t88 38.5q51 0 88.5 -38.5t37.5 -90.5t-37.5 -90.5t-88.5 -38.5q-50 0 -88 38.5t-38 90.5z" />
<glyph unicode="&#xdd;" d="M53 1443h230l343 -648h14l343 648h230l-476 -864v-579h-208v579zM507 1610l293 307h233l-319 -307h-207z" />
<glyph unicode="&#xde;" d="M183 0v1443h215v-254h321q194 0 311.5 -119.5t117.5 -311.5t-120 -312t-316 -120h-313v-326h-216zM399 514h259q269 0 269 244q0 241 -269 241h-259v-485z" />
<glyph unicode="&#xdf;" d="M192 0v1098q0 185 115.5 289.5t318.5 104.5q202 0 316.5 -101.5t114.5 -281.5q0 -112 -63 -202.5t-164 -123.5v-18q159 -19 247 -115t88 -250q0 -191 -123.5 -303t-333.5 -112q-75 0 -150 15v183q52 -16 133 -16q259 0 259 241q0 119 -81 184t-229 65h-56v195h42 q106 0 164 62.5t58 175.5q0 98 -62.5 158.5t-163.5 60.5q-109 0 -166.5 -57t-57.5 -166v-1086h-206z" />
<glyph unicode="&#xe0;" d="M166 310q0 145 101.5 228.5t292.5 94.5l286 15v96q0 94 -56.5 144.5t-161.5 50.5q-87 0 -146.5 -36t-78.5 -100h-196q15 135 132.5 218.5t292.5 83.5q197 0 305 -94.5t108 -266.5v-745h-191v159h-19q-39 -84 -123.5 -130t-199.5 -46q-156 0 -251 90t-95 238zM325 1639 h234l240 -343h-205zM366 319q0 -79 56 -124.5t152 -45.5q117 0 194.5 69t77.5 173v115l-259 -13q-109 -6 -165 -50t-56 -124z" />
<glyph unicode="&#xe1;" d="M166 310q0 145 101.5 228.5t292.5 94.5l286 15v96q0 94 -56.5 144.5t-161.5 50.5q-87 0 -146.5 -36t-78.5 -100h-196q15 135 132.5 218.5t292.5 83.5q197 0 305 -94.5t108 -266.5v-745h-191v159h-19q-39 -84 -123.5 -130t-199.5 -46q-156 0 -251 90t-95 238zM366 319 q0 -79 56 -124.5t152 -45.5q117 0 194.5 69t77.5 173v115l-259 -13q-109 -6 -165 -50t-56 -124zM519 1296l240 343h234l-269 -343h-205z" />
<glyph unicode="&#xe2;" d="M166 310q0 145 101.5 228.5t292.5 94.5l286 15v96q0 94 -56.5 144.5t-161.5 50.5q-87 0 -146.5 -36t-78.5 -100h-196q15 135 132.5 218.5t292.5 83.5q197 0 305 -94.5t108 -266.5v-745h-191v159h-19q-39 -84 -123.5 -130t-199.5 -46q-156 0 -251 90t-95 238zM246 1279 l272 346h226l272 -346h-214l-163 222h-16l-164 -222h-213zM366 319q0 -79 56 -124.5t152 -45.5q117 0 194.5 69t77.5 173v115l-259 -13q-109 -6 -165 -50t-56 -124z" />
<glyph unicode="&#xe3;" d="M166 310q0 145 101.5 228.5t292.5 94.5l286 15v96q0 94 -56.5 144.5t-161.5 50.5q-87 0 -146.5 -36t-78.5 -100h-196q15 135 132.5 218.5t292.5 83.5q197 0 305 -94.5t108 -266.5v-745h-191v159h-19q-39 -84 -123.5 -130t-199.5 -46q-156 0 -251 90t-95 238zM253 1266 q0 139 63.5 220.5t172.5 81.5q52 0 96.5 -24t70 -52t56.5 -52t58 -24q85 0 85 149h153q0 -138 -63 -219t-172 -81q-52 0 -96.5 24t-70.5 53t-57 53t-58 24q-84 0 -85 -153h-153zM366 319q0 -79 56 -124.5t152 -45.5q117 0 194.5 69t77.5 173v115l-259 -13q-109 -6 -165 -50 t-56 -124z" />
<glyph unicode="&#xe4;" d="M166 310q0 145 101.5 228.5t292.5 94.5l286 15v96q0 94 -56.5 144.5t-161.5 50.5q-87 0 -146.5 -36t-78.5 -100h-196q15 135 132.5 218.5t292.5 83.5q197 0 305 -94.5t108 -266.5v-745h-191v159h-19q-39 -84 -123.5 -130t-199.5 -46q-156 0 -251 90t-95 238zM301 1426 q0 52 38 90.5t88 38.5q51 0 88.5 -38.5t37.5 -90.5q0 -53 -37.5 -91.5t-88.5 -38.5q-50 0 -88 39t-38 91zM366 319q0 -79 56 -124.5t152 -45.5q117 0 194.5 69t77.5 173v115l-259 -13q-109 -6 -165 -50t-56 -124zM722 1426q0 52 38 90.5t88 38.5q51 0 88.5 -38.5t37.5 -90.5 q0 -53 -37.5 -91.5t-88.5 -38.5q-50 0 -88 39t-38 91z" />
<glyph unicode="&#xe5;" d="M166 310q0 145 101.5 228.5t292.5 94.5l286 15v96q0 94 -56.5 144.5t-161.5 50.5q-87 0 -146.5 -36t-78.5 -100h-196q15 135 132.5 218.5t292.5 83.5q197 0 305 -94.5t108 -266.5v-745h-191v159h-19q-39 -84 -123.5 -130t-199.5 -46q-156 0 -251 90t-95 238zM366 319 q0 -79 56 -124.5t152 -45.5q117 0 194.5 69t77.5 173v115l-259 -13q-109 -6 -165 -50t-56 -124zM401 1482q0 97 67.5 165.5t162.5 68.5t162 -68.5t67 -165.5t-67 -165.5t-162 -68.5t-162.5 68.5t-67.5 165.5zM517 1482q0 -50 32.5 -83t81.5 -33q48 0 80.5 33.5t32.5 82.5 t-32.5 82.5t-80.5 33.5q-49 0 -81.5 -33t-32.5 -83z" />
<glyph unicode="&#xe6;" d="M56 304q0 289 307 321l178 18v89q0 100 -40.5 153.5t-114.5 53.5q-56 0 -94.5 -40t-45.5 -106h-163q13 141 98.5 227.5t212.5 86.5q86 0 150 -45t96 -129h5q82 174 249 174q155 0 240 -140.5t85 -399.5v-75h-508v-16q1 -153 48.5 -237.5t132.5 -84.5q62 0 102.5 36.5 t66.5 116.5h153q-31 -160 -112.5 -242.5t-208.5 -82.5q-88 0 -158 58t-105 162h-5q-40 -106 -114.5 -163t-173.5 -57q-125 0 -203 89.5t-78 232.5zM227 309q0 -155 135 -155q80 0 131 66t51 171v102l-157 -15q-76 -7 -118 -51.5t-42 -117.5zM716 646h328q-2 144 -42.5 218.5 t-117.5 74.5q-73 0 -116.5 -76t-51.5 -217z" />
<glyph unicode="&#xe7;" d="M175 479v134q0 238 125 368.5t353 130.5q191 0 308.5 -98t137.5 -275h-198q-14 94 -81.5 147.5t-168.5 53.5q-133 0 -204 -90t-71 -258v-92q0 -168 71 -258t204 -90q101 0 168 52t82 144h198q-19 -162 -123 -258t-274 -109l-43 -107q95 -2 145 -45t50 -123 q0 -89 -66.5 -141.5t-179.5 -52.5q-67 0 -133 18v117q44 -14 117 -14q112 0 112 68q0 33 -32.5 48t-105.5 15h-58v94l53 127q-185 26 -285.5 154t-100.5 340z" />
<glyph unicode="&#xe8;" d="M177 469v166q0 215 129 345.5t341 130.5q214 0 336 -133t122 -365v-118h-731v-49q0 -138 77 -220t206 -82q97 0 165 38.5t88 105.5h192q-22 -137 -145 -223t-299 -86q-229 0 -355 128.5t-126 361.5zM299 1639h235l239 -343h-205zM374 636h534q0 146 -69.5 228.5 t-193.5 82.5q-127 0 -199 -82.5t-72 -228.5z" />
<glyph unicode="&#xe9;" d="M177 469v166q0 215 129 345.5t341 130.5q214 0 336 -133t122 -365v-118h-731v-49q0 -138 77 -220t206 -82q97 0 165 38.5t88 105.5h192q-22 -137 -145 -223t-299 -86q-229 0 -355 128.5t-126 361.5zM374 636h534q0 146 -69.5 228.5t-193.5 82.5q-127 0 -199 -82.5 t-72 -228.5zM530 1296l239 343h235l-269 -343h-205z" />
<glyph unicode="&#xea;" d="M177 469v166q0 215 129 345.5t341 130.5q214 0 336 -133t122 -365v-118h-731v-49q0 -138 77 -220t206 -82q97 0 165 38.5t88 105.5h192q-22 -137 -145 -223t-299 -86q-229 0 -355 128.5t-126 361.5zM256 1279l272 346h226l272 -346h-213l-164 222h-16l-164 -222h-213z M374 636h534q0 146 -69.5 228.5t-193.5 82.5q-127 0 -199 -82.5t-72 -228.5z" />
<glyph unicode="&#xeb;" d="M177 469v166q0 215 129 345.5t341 130.5q214 0 336 -133t122 -365v-118h-731v-49q0 -138 77 -220t206 -82q97 0 165 38.5t88 105.5h192q-22 -137 -145 -223t-299 -86q-229 0 -355 128.5t-126 361.5zM304 1444q0 52 38 90.5t88 38.5q51 0 88.5 -38.5t37.5 -90.5 t-37.5 -90.5t-88.5 -38.5q-50 0 -88 38.5t-38 90.5zM374 636h534q0 146 -69.5 228.5t-193.5 82.5q-127 0 -199 -82.5t-72 -228.5zM725 1444q0 52 37.5 90.5t88.5 38.5t88.5 -38.5t37.5 -90.5t-37.5 -90.5t-88.5 -38.5t-88.5 38.5t-37.5 90.5z" />
<glyph unicode="&#xec;" d="M196 0v162h367v766h-359v162h555v-928h352v-162h-915zM312 1632h234l240 -342h-205z" />
<glyph unicode="&#xed;" d="M196 0v162h367v766h-359v162h555v-928h352v-162h-915zM542 1290l240 342h235l-270 -342h-205z" />
<glyph unicode="&#xee;" d="M196 0v162h367v766h-359v162h555v-928h352v-162h-915zM268 1273l272 345h226l272 -345h-213l-164 221h-16l-163 -221h-214z" />
<glyph unicode="&#xef;" d="M196 0v162h367v766h-359v162h555v-928h352v-162h-915zM317 1438q0 52 37.5 90.5t88.5 38.5q50 0 88 -38.5t38 -90.5t-38 -91t-88 -39q-51 0 -88.5 38.5t-37.5 91.5zM737 1438q0 52 38 90.5t88 38.5q51 0 88.5 -38.5t37.5 -90.5q0 -53 -37.5 -91.5t-88.5 -38.5 q-50 0 -88 39t-38 91z" />
<glyph unicode="&#xf0;" d="M120 482v50q0 228 114.5 360.5t309.5 132.5q179 0 271 -126h12q-45 161 -162 315l-298 -109v135l211 77q-108 114 -251 211h271q82 -61 160 -145l314 114v-134l-229 -84q109 -149 167.5 -325t58.5 -356v-109q0 -242 -124 -374.5t-351 -132.5q-226 0 -350 130.5 t-124 369.5zM329 478q0 -159 69.5 -246t196.5 -87t196.5 87t69.5 246v62q0 158 -69 243t-197 85t-197 -85t-69 -243v-62z" />
<glyph unicode="&#xf1;" d="M175 0v1090h194v-190h14q43 101 132 156t211 55q178 0 271.5 -103.5t93.5 -300.5v-707h-201v657q0 140 -57.5 207.5t-178.5 67.5q-125 0 -202 -80.5t-77 -212.5v-639h-200zM255 1272q0 139 63.5 220t172.5 81q42 0 79 -15.5t62.5 -38t48 -45t45.5 -38t46 -15.5 q44 0 64.5 36.5t20.5 113.5h153q0 -139 -63 -219.5t-172 -80.5q-52 0 -96.5 24t-70.5 52.5t-56.5 52.5t-57.5 24q-44 0 -64.5 -37t-21.5 -115h-153z" />
<glyph unicode="&#xf2;" d="M152 462v165q0 222 130 352.5t351 130.5t351 -130.5t130 -352.5v-165q0 -221 -130.5 -352t-350.5 -131t-350.5 131t-130.5 352zM276 1639h235l240 -343h-205zM350 476q0 -151 76 -239t207 -88t207 88t76 239v137q0 151 -76 239t-207 88t-207 -88t-76 -239v-137z" />
<glyph unicode="&#xf3;" d="M152 462v165q0 222 130 352.5t351 130.5t351 -130.5t130 -352.5v-165q0 -221 -130.5 -352t-350.5 -131t-350.5 131t-130.5 352zM350 476q0 -151 76 -239t207 -88t207 88t76 239v137q0 151 -76 239t-207 88t-207 -88t-76 -239v-137zM521 1296l240 343h235l-270 -343h-205z " />
<glyph unicode="&#xf4;" d="M152 462v165q0 222 130 352.5t351 130.5t351 -130.5t130 -352.5v-165q0 -221 -130.5 -352t-350.5 -131t-350.5 131t-130.5 352zM248 1279l272 346h226l272 -346h-213l-164 222h-16l-164 -222h-213zM350 476q0 -151 76 -239t207 -88t207 88t76 239v137q0 151 -76 239 t-207 88t-207 -88t-76 -239v-137z" />
<glyph unicode="&#xf5;" d="M152 462v165q0 222 130 352.5t351 130.5t351 -130.5t130 -352.5v-165q0 -221 -130.5 -352t-350.5 -131t-350.5 131t-130.5 352zM255 1272q0 139 63.5 220t172.5 81q42 0 79 -15.5t62.5 -38t48 -45t45.5 -38t46 -15.5q44 0 64.5 36.5t20.5 113.5h153q0 -139 -63 -219.5 t-172 -80.5q-52 0 -96.5 24t-70.5 52.5t-56.5 52.5t-57.5 24q-44 0 -64.5 -37t-21.5 -115h-153zM350 476q0 -151 76 -239t207 -88t207 88t76 239v137q0 151 -76 239t-207 88t-207 -88t-76 -239v-137z" />
<glyph unicode="&#xf6;" d="M152 462v165q0 222 130 352.5t351 130.5t351 -130.5t130 -352.5v-165q0 -221 -130.5 -352t-350.5 -131t-350.5 131t-130.5 352zM296 1444q0 52 37.5 90.5t88.5 38.5t88.5 -38.5t37.5 -90.5t-37.5 -90.5t-88.5 -38.5t-88.5 38.5t-37.5 90.5zM350 476q0 -151 76 -239 t207 -88t207 88t76 239v137q0 151 -76 239t-207 88t-207 -88t-76 -239v-137zM717 1444q0 52 37.5 90.5t88.5 38.5q50 0 88 -38.5t38 -90.5t-38 -90.5t-88 -38.5q-51 0 -88.5 38.5t-37.5 90.5z" />
<glyph unicode="&#xf7;" d="M127 553v175h1012v-175h-1012zM498 271q0 61 38 99.5t97 38.5q60 0 98 -38.5t38 -99.5q0 -60 -38 -98t-98 -38q-59 0 -97 38t-38 98zM498 1009q0 61 38 99.5t97 38.5q60 0 98 -38.5t38 -99.5q0 -60 -38 -98.5t-98 -38.5q-59 0 -97 38.5t-38 98.5z" />
<glyph unicode="&#xf8;" d="M142 0l111 143q-101 126 -101 319v165q0 222 130 352.5t351 130.5q179 0 301 -88l52 68h139l-112 -144q101 -126 101 -319v-165q0 -221 -130.5 -352t-350.5 -131q-179 0 -302 89l-53 -68h-136zM350 476q0 -94 31 -167l438 565q-75 66 -186 66q-131 0 -207 -88t-76 -239 v-137zM446 217q74 -68 187 -68q131 0 207 88t76 239v137q0 96 -32 168z" />
<glyph unicode="&#xf9;" d="M175 383v707h201v-658q0 -140 57.5 -207t178.5 -67q125 0 202 80.5t77 212.5v639h200v-1090h-194v189h-14q-43 -101 -132 -155.5t-211 -54.5q-178 0 -271.5 103.5t-93.5 300.5zM291 1639h235l239 -343h-205z" />
<glyph unicode="&#xfa;" d="M175 383v707h201v-658q0 -140 57.5 -207t178.5 -67q125 0 202 80.5t77 212.5v639h200v-1090h-194v189h-14q-43 -101 -132 -155.5t-211 -54.5q-178 0 -271.5 103.5t-93.5 300.5zM521 1296l240 343h235l-270 -343h-205z" />
<glyph unicode="&#xfb;" d="M175 383v707h201v-658q0 -140 57.5 -207t178.5 -67q125 0 202 80.5t77 212.5v639h200v-1090h-194v189h-14q-43 -101 -132 -155.5t-211 -54.5q-178 0 -271.5 103.5t-93.5 300.5zM248 1279l272 346h226l272 -346h-214l-163 222h-16l-164 -222h-213z" />
<glyph unicode="&#xfc;" d="M175 383v707h201v-658q0 -140 57.5 -207t178.5 -67q125 0 202 80.5t77 212.5v639h200v-1090h-194v189h-14q-43 -101 -132 -155.5t-211 -54.5q-178 0 -271.5 103.5t-93.5 300.5zM296 1444q0 52 37.5 90.5t88.5 38.5t88.5 -38.5t37.5 -90.5t-37.5 -90.5t-88.5 -38.5 t-88.5 38.5t-37.5 90.5zM717 1444q0 52 37.5 90.5t88.5 38.5q50 0 88 -38.5t38 -90.5t-38 -90.5t-88 -38.5q-51 0 -88.5 38.5t-37.5 90.5z" />
<glyph unicode="&#xfd;" d="M122 1090h220l287 -892h14l285 892h213l-400 -1123q-71 -203 -161.5 -280t-257.5 -77q-43 0 -82 3v169q16 -3 60 -3q79 0 125.5 36.5t76.5 122.5l17 54zM521 1296l239 343h235l-269 -343h-205z" />
<glyph unicode="&#xfe;" d="M173 -345v1810h206v-546h20q35 91 116.5 141t194.5 50q189 0 301.5 -126t112.5 -337v-203q0 -211 -113.5 -336.5t-304.5 -125.5q-227 0 -307 184h-20v-511h-206zM380 465q0 -145 71 -226.5t198 -81.5q124 0 195 82t71 226v156q0 143 -70.5 225t-194.5 82 q-126 0 -198 -81.5t-72 -225.5v-156z" />
<glyph unicode="&#xff;" d="M122 1090h220l287 -892h14l285 892h213l-400 -1123q-71 -203 -161.5 -280t-257.5 -77q-43 0 -82 3v169q16 -3 60 -3q79 0 125.5 36.5t76.5 122.5l17 54zM295 1444q0 52 38 90.5t88 38.5q51 0 88.5 -38.5t37.5 -90.5t-37.5 -90.5t-88.5 -38.5q-50 0 -88 38.5t-38 90.5z M716 1444q0 52 37.5 90.5t88.5 38.5t88.5 -38.5t37.5 -90.5t-37.5 -90.5t-88.5 -38.5t-88.5 38.5t-37.5 90.5z" />
<glyph unicode="&#x152;" d="M26 611v222q0 328 88.5 486t272.5 158q116 0 186 -59.5t102 -183.5h15v209h568v-190h-401v-427h366v-184h-366v-453h401v-189h-568v205h-15q-30 -121 -100.5 -179.5t-187.5 -58.5q-184 0 -272.5 157.5t-88.5 486.5zM226 627q0 -240 50.5 -346.5t165.5 -106.5 q116 0 169.5 113t53.5 360v150q0 246 -53.5 359t-169.5 113q-115 0 -165.5 -106t-50.5 -346v-190z" />
<glyph unicode="&#x153;" d="M63 451v179q0 227 86.5 349.5t246.5 122.5q96 0 166 -52.5t101 -148.5q28 88 102 144.5t160 56.5q156 0 238 -137t82 -397v-90h-494v-34q0 -142 44.5 -216.5t129.5 -74.5q60 0 101.5 34.5t59.5 99.5h151q-22 -141 -107.5 -224.5t-208.5 -83.5q-90 0 -158.5 52.5 t-102.5 146.5q-36 -91 -107.5 -145t-157.5 -54q-159 0 -245.5 123t-86.5 349zM234 450q0 -153 40 -225t126 -72q82 0 127 77.5t45 219.5v182q0 142 -45 219.5t-127 77.5q-85 0 -125.5 -72.5t-40.5 -224.5v-182zM752 644h323q-6 149 -42.5 216.5t-111.5 67.5q-79 0 -123 -75 t-46 -209z" />
<glyph unicode="&#x178;" d="M53 1443h230l343 -648h14l343 648h230l-476 -864v-579h-208v579zM297 1772q0 52 37.5 90.5t88.5 38.5q50 0 88 -38.5t38 -90.5t-38 -90.5t-88 -38.5q-51 0 -88.5 38.5t-37.5 90.5zM717 1772q0 52 38 90.5t88 38.5q51 0 88.5 -38.5t37.5 -90.5t-37.5 -90.5t-88.5 -38.5 q-50 0 -88 38.5t-38 90.5z" />
<glyph unicode="&#x2c6;" d="M248 1279l272 346h226l272 -346h-213l-164 222h-16l-164 -222h-213z" />
<glyph unicode="&#x2dc;" d="M256 1272q0 139 63 220t172 81q42 0 79 -15.5t62.5 -38t48 -45t46 -38t45.5 -15.5q44 0 64.5 36t21.5 114h153q0 -139 -63.5 -219.5t-172.5 -80.5q-52 0 -96.5 24t-70 52.5t-56.5 52.5t-58 24q-85 0 -85 -152h-153z" />
<glyph unicode="&#x2000;" horiz-adv-x="971" />
<glyph unicode="&#x2001;" horiz-adv-x="1943" />
<glyph unicode="&#x2002;" horiz-adv-x="971" />
<glyph unicode="&#x2003;" horiz-adv-x="1943" />
<glyph unicode="&#x2004;" horiz-adv-x="647" />
<glyph unicode="&#x2005;" horiz-adv-x="485" />
<glyph unicode="&#x2006;" horiz-adv-x="323" />
<glyph unicode="&#x2007;" horiz-adv-x="323" />
<glyph unicode="&#x2008;" horiz-adv-x="242" />
<glyph unicode="&#x2009;" horiz-adv-x="388" />
<glyph unicode="&#x200a;" horiz-adv-x="107" />
<glyph unicode="&#x2010;" d="M104 549v182h1058v-182h-1058z" />
<glyph unicode="&#x2011;" d="M104 549v182h1058v-182h-1058z" />
<glyph unicode="&#x2012;" d="M104 549v182h1058v-182h-1058z" />
<glyph unicode="&#x2013;" d="M0 549v182h1266v-182h-1266z" />
<glyph unicode="&#x2014;" d="M0 549v182h1266v-182h-1266z" />
<glyph unicode="&#x2018;" d="M457 781l185 662h185l-120 -662h-250z" />
<glyph unicode="&#x2019;" d="M439 781l120 662h250l-185 -662h-185z" />
<glyph unicode="&#x201a;" d="M439 -337l120 662h250l-185 -662h-185z" />
<glyph unicode="&#x201c;" d="M259 781l176 662h171l-116 -662h-231zM666 781l176 662h171l-116 -662h-231z" />
<glyph unicode="&#x201d;" d="M246 805l117 662h230l-176 -662h-171zM653 805l116 662h231l-176 -662h-171z" />
<glyph unicode="&#x201e;" d="M253 -337l116 662h231l-176 -662h-171zM660 -337l116 662h231l-176 -662h-171z" />
<glyph unicode="&#x2022;" d="M204 640q0 178 126 305t303 127t303 -127t126 -305t-126 -304.5t-303 -126.5t-303 126.5t-126 304.5z" />
<glyph unicode="&#x2026;" d="M101 165q0 86 32 131t93 45t93 -45t32 -131q0 -175 -125 -175q-61 0 -93 45t-32 130zM508 165q0 86 32 131t93 45t93 -45t32 -131q0 -175 -125 -175t-125 175zM915 165q0 86 32 131t93 45t93 -45t32 -131q0 -85 -32 -130t-93 -45q-125 0 -125 175z" />
<glyph unicode="&#x202f;" horiz-adv-x="388" />
<glyph unicode="&#x2039;" d="M359 637v4l347 420h201l-347 -420v-4l347 -420h-201z" />
<glyph unicode="&#x203a;" d="M359 217l347 420v4l-347 420h201l347 -420v-4l-347 -420h-201z" />
<glyph unicode="&#x205f;" horiz-adv-x="485" />
<glyph unicode="&#x20ac;" d="M101 504v129h195q-5 42 -5 89q0 52 4 84h-194v127h212q55 265 241 400t497 135q92 0 146 -12v-185q-52 9 -134 9q-214 0 -345 -86t-184 -261h536v-127h-564q-4 -40 -4 -84q0 -52 4 -89h564v-129h-534q107 -341 525 -341q80 0 139 8v-186q-66 -9 -149 -9q-622 0 -737 528 h-213z" />
<glyph unicode="&#x2122;" d="M27 1259v144h452v-144h-157v-683h-137v683h-158zM547 576v827h175l128 -571h17l127 571h176v-827h-119v537h-17l-125 -511h-101l-125 511h-17v-537h-119z" />
<glyph unicode="&#x25fc;" horiz-adv-x="1090" d="M0 0v1090h1090v-1090h-1090z" />
<glyph unicode="&#xfb01;" d="M10 919v165h232v101q0 166 99 242t314 76q88 0 144 -9v-155q-86 8 -144 8q-207 0 -207 -153v-110h700v-1084h-206v919h-494v-919h-206v919h-232zM885 1395q0 64 44 106t111 42q68 0 111.5 -42t43.5 -106q0 -65 -44 -107t-111 -42t-111 42.5t-44 106.5z" />
<glyph unicode="&#xfb02;" d="M0 919v165h224v74q0 185 98 266.5t321 81.5h505v-1506h-200v1352h-290q-132 0 -184 -44.5t-52 -156.5v-67h339v-165h-336v-919h-201v919h-224z" />
</font>
</defs>
</svg>
